<svg id="图层_2" data-name="图层 2" xmlns="http://www.w3.org/2000/svg" viewBox="0 0 512 512"><defs><style>.cls-1{fill:#4e6bdc;}.cls-2{fill:#fff;}</style></defs><path class="cls-1" d="M220.5,107.5c-36-6-129.82-34.1-140.78-36.17L78,71V402.73a427.3,427.3,0,0,0,80.5,24.77c39,10,206.22,35.89,217.75,37.4.22-1,.48-2.06.75-3.08v-329C379.2,133.2,281.4,117.58,220.5,107.5Z"/><path class="cls-1" d="M222.57,100c-20.57-3.45-40.83-9.07-61-14.45-21.09-5.63-42.1-11.59-63.14-17.39-6.1-1.67-12.19-3.45-18.4-4.66-4.91-1-9.87,2.14-9.87,7.52V402.73c0,2.51,1.43,5.66,3.86,6.74,39,17.25,81.13,26.17,122.85,33.87,45.63,8.43,91.47,15.78,137.3,23,14,2.2,28,4.52,42,6.38,3.22.43,6.83-2.72,7.52-5.73,1.06-4.6,1-8.5,1-13.18v-321l-9.87,7.52h0L377,125c4,.46.44,0-.91-.19l-7.77-1.23L342,119.38q-37.87-6.07-75.75-12.24-21.85-3.56-43.7-7.16c-4.15-.69-8.39,1.09-9.59,5.45-1,3.73,1.27,8.9,5.45,9.59q72,11.91,144,23.33c4.85.77,9.71,1.69,14.59,2.26,3.8.44,7.25-3.31,7.67-6.77.49-4.14-1.89-7-5.59-8.55h0c-4.91-1-9.87,2.14-9.87,7.52V459.08a12.68,12.68,0,0,1-.47,3.75l7.52-5.73c4.05.54-1.18-.18-2.25-.34l-7.43-1.12q-11-1.67-22.07-3.4-32.69-5.1-65.32-10.47c-39.65-6.52-79.42-12.86-118.61-21.79-18.91-4.31-37.55-9-55.9-15.34q-8.9-3.08-17.66-6.55l-2.55-1-1.45-.6c1.17.5-.62-.26-1.07-.47l3.86,6.74V71l-9.87,7.52C90.29,81.31,104.4,86,118.48,89.9c22.79,6.34,45.59,12.66,68.56,18.3,10.39,2.56,20.83,5,31.39,6.82,4.15.7,8.39-1.09,9.59-5.45C229.05,105.83,226.75,100.68,222.57,100Z"/><path class="cls-1" d="M425.2,92.42V400.14l5.73-7.52c-30.05,11.42-53,36-61.45,67.13l15.32,2.07V133.67l-1.06,3.94a78.65,78.65,0,0,1,51.33-37.67c9.79-2.2,5.65-17.24-4.14-15A93.13,93.13,0,0,0,394.49,102a89.73,89.73,0,0,0-14.6,14c-3.81,4.62-10.27,11.48-10.69,17.74-.24,3.55,0,7.2,0,10.76V413c0,16-.64,32.14,0,48.13,0,.25,0,.49,0,.73,0,8.77,13,10.62,15.32,2.07a83.67,83.67,0,0,1,50.55-56.23c3.26-1.24,5.73-3.85,5.73-7.52V92.42C440.8,82.38,425.2,82.37,425.2,92.42Z"/><path class="cls-1" d="M86,73.57C95.28,50.14,120,40.12,142.57,34h-4.14c37.33,10.56,74.82,19.55,112.78,27.44L393.22,91l37.71,7.83-5.73-7.52v1.14c0,10,15.6,10,15.6,0V91.28c0-3.24-2.41-6.83-5.73-7.52L310.33,57.84C261,47.59,211.7,37.94,163.09,24.67q-9.28-2.54-18.55-5.14C137,17.42,128,21.84,121,24.5,98.68,33,80,46.7,71,69.43,69.43,73.35,72.68,78,76.43,79c4.43,1.22,8-1.51,9.59-5.45Z"/><path class="cls-2" d="M152.07,163.42a7.37,7.37,0,0,0-10.91,4.36c-5.34,19.27-17.44,65.65-18,91.82-.67,30.09,12.37,79.9,12.37,79.9l176,38s20.25-43.91,21-81.25c.78-38.94-7.63-76.81-11.32-91.43a7.5,7.5,0,0,0-8.6-5.57c-7.63,1.37-22,10.26-31.08,21.25-16.65,20.22-21,36-21,36l-70-15s1-24-9-42C172.27,182.89,160.75,168.68,152.07,163.42Z"/><path class="cls-1" d="M152.83,162.13a9,9,0,0,0-9.63.33c-2.65,1.86-3.41,4.62-4.22,7.58q-2.37,8.67-4.57,17.39c-3.72,14.73-7.11,29.56-9.67,44.53-1.18,7-2.2,14-2.76,21a128.45,128.45,0,0,0,0,19.32,337.47,337.47,0,0,0,6.35,42.65c1.67,8.2,3.32,16.5,5.59,24.57,0,.13.07.26.1.39a1.5,1.5,0,0,0,1,1.05l4.7,1,12.8,2.76,18.93,4.09,23.1,5,25.3,5.46,25.54,5.52,23.82,5.14,20.14,4.35,14.49,3.13c2.29.49,4.58,1,6.88,1.48l.3.07a1.55,1.55,0,0,0,1.7-.69,262.54,262.54,0,0,0,12.33-33.17,220.37,220.37,0,0,0,7.22-30.83,183,183,0,0,0,1.41-35.86,373.8,373.8,0,0,0-9-64.83c-.71-3.2-1.3-6.54-2.32-9.66-1.57-4.78-6.42-7-11.17-5.92a41.19,41.19,0,0,0-11.24,4.95,80.64,80.64,0,0,0-12.71,9.33,88.43,88.43,0,0,0-11.57,13.1,134.62,134.62,0,0,0-9,13.69,86.59,86.59,0,0,0-7.5,16.31c-.08.24-.16.48-.23.73l1.85-1.05L237.19,250l-37.72-8.08-8.57-1.84,1.1,1.45a95.1,95.1,0,0,0-2.68-25.32,73.8,73.8,0,0,0-8.14-20.27,152.23,152.23,0,0,0-13.54-19.77c-4.25-5.22-9-10.46-14.81-14-1.65-1-3.16,1.58-1.51,2.59,4.86,3,8.89,7.28,12.57,11.58A140.5,140.5,0,0,1,177.18,195a84.5,84.5,0,0,1,5.38,10,67.72,67.72,0,0,1,3.36,9.92,96.35,96.35,0,0,1,2.83,17.45,80.92,80.92,0,0,1,.25,9.08,1.52,1.52,0,0,0,1.1,1.45L213.81,248l37.72,8.08L260.1,258A1.54,1.54,0,0,0,262,256.9a60.33,60.33,0,0,1,4.35-10.56,122.76,122.76,0,0,1,17.28-26,69.57,69.57,0,0,1,23.86-17.87c3.33-1.47,7.63-3.11,10.65-.15,1.33,1.3,1.68,3,2.11,4.72.37,1.52.73,3,1.09,4.56a377.36,377.36,0,0,1,9.13,60.63c.77,11.86,1.12,23.87-.23,35.7a194.88,194.88,0,0,1-6.3,30.7,274.55,274.55,0,0,1-13.41,37.49c-.09.2-.18.4-.28.6l1.7-.69-4.7-1-12.8-2.76-18.93-4.09-23.1-5-25.3-5.46-25.54-5.52-23.82-5.14-20.14-4.35-14.49-3.13c-2.26-.48-4.59-1.21-6.88-1.48-.1,0-.2-.05-.3-.07l1,1.05c-1.69-6.43-3.15-12.93-4.54-19.43a384.92,384.92,0,0,1-6.78-40.48,153,153,0,0,1-1-19.73,159.86,159.86,0,0,1,1.78-19c2.14-14.75,5.33-29.35,8.82-43.84q2.28-9.5,4.8-18.93,1-3.79,2-7.59a12.38,12.38,0,0,1,1.28-3.57,5.88,5.88,0,0,1,8-1.77A1.5,1.5,0,0,0,152.83,162.13Z"/></svg>