<svg id="图层_1" data-name="图层 1" xmlns="http://www.w3.org/2000/svg" viewBox="0 0 1024 1024"><defs><style>.cls-1{fill:none;}.cls-1,.cls-2,.cls-3,.cls-4,.cls-5,.cls-6{stroke:#000;stroke-miterlimit:10;stroke-width:6px;}.cls-2{fill:#3fa9f5;}.cls-3{fill:#ff7bac;}.cls-4{fill:#fbb03b;}.cls-5{fill:#e6e6e6;}.cls-6{fill:#fff;}</style></defs><line class="cls-1" x1="288" y1="948" x2="760" y2="948"/><polygon class="cls-2" points="660 948 372 948 355 707 683 707 660 948"/><path class="cls-3" d="M240,374S257.79,68.19,285.35,66.79C301,66,386,224,386,224Z"/><path class="cls-4" d="M606,205S718,60,733,67s27,241,27,241Z"/><path class="cls-5" d="M564,578l224.2,74.53C735.31,746,635,809,520,809c-170.1,0-308-137.9-308-308S349.9,193,520,193c154,0,281.65,113.07,304.39,260.74Z"/><circle class="cls-6" cx="375.5" cy="436.5" r="62.5"/><circle class="cls-6" cx="624" cy="372" r="59"/></svg>